# AST/ASF file generated using VICON BodyLanguage
# -----------------------------------------------
:version 1.10
:name VICON
:units
  mass 1.0
  length 0.45
  angle deg
:documentation
   .ast/.asf automatically generated from VICON data using
   VICON BodyBuilder and BodyLanguage model FoxedUp or BRILLIANT.MOD
:root
   order TX TY TZ RX RY RZ
   axis XYZ
   position 0 0 0  
   orientation 0 0 0 
:bonedata
  begin
     id 1 
     name lhipjoint
     direction 0.643824 -0.71708 0.266994 
     length 2.52133 
     axis 0 0 0  XYZ
  end
  begin
     id 2 
     name lfemur
     direction 0.34202 -0.939693 0  
     length 7.51824  
     axis 0 0 20  XYZ
    dof rx ry rz
    limits (-160.0 20.0)
           (-70.0 70.0)
           (-60.0 70.0)
  end
  begin
     id 3 
     name ltibia
     direction 0.34202 -0.939693 0   
     length 7.3685   
     axis 0 0 20   XYZ
    dof rx
    limits (-10.0 170.0)
  end
  begin
     id 4 
     name lfoot
     direction 0.105419 -0.289636 0.951314   
     length 2.20972   
     axis -90 7.62852e-016 20   XYZ
    dof rx rz
    limits (-45.0 90.0)
           (-70.0 20.0)
  end
  begin
     id 5 
     name ltoes
     direction 1.53549e-011 -4.21833e-011 1   
     length 1.10139   
     axis -90 7.62852e-016 20   XYZ
    dof rx
    limits (-90.0 20.0)
  end
  begin
     id 6 
     name rhipjoint
     direction -0.608823 -0.743445 0.276811   
     length 2.43192  
     axis 0 0 0  XYZ 
  end
  begin
     id 7 
     name rfemur
     direction -0.34202 -0.939693 0   
     length 7.69715   
     axis 0 0 -20   XYZ
    dof rx ry rz
    limits (-160.0 20.0)
           (-70.0 70.0)
           (-70.0 60.0)
  end
  begin
     id 8 
     name rtibia
     direction -0.34202 -0.939693 0   
     length 7.44924   
     axis 0 0 -20   XYZ
    dof rx
    limits (-10.0 170.0)
 end
 begin
     id 9 
     name rfoot
     direction -0.103614 -0.284677 0.953007   
     length 2.22623  
     axis -90 -7.62852e-016 -20   XYZ
    dof rx rz
    limits (-45.0 90.0)
           (-20.0 70.0)
  end
  begin
     id 10 
     name rtoes
     direction -1.53537e-011 -4.22026e-011 1   
     length 1.11   
     axis -90 -7.62852e-016 -20   XYZ
    dof rx
    limits (-90.0 20.0)
  end
  begin
     id 11 
     name lowerback
     direction -0.0101212 0.99662 -0.0815298   
     length 2.08277   
     axis 0 0 0   XYZ
    dof rx ry rz
    limits (-20.0 45.0)
           (-30.0 30.0)
           (-30.0 30.0)
  end
  begin
     id 12 
     name upperback
     direction 0.024314 0.999591 -0.0150645   
     length 2.08524   
     axis 0 0 0   XYZ
    dof rx ry rz
    limits (-20.0 45.0)
           (-30.0 30.0)
           (-30.0 30.0)
  end
  begin
     id 13 
     name thorax
     direction 0.0285959 0.999323 0.0231357   
     length 2.09645   
     axis 0 0 0   XYZ
    dof rx ry rz
    limits (-20.0 45.0)
           (-30.0 30.0)
           (-30.0 30.0)
  end
  begin
     id 14 
     name lowerneck
     direction -0.065512 0.979301 0.191515   
     length 1.63798   
     axis 0 0 0   XYZ
    dof rx ry rz
    limits (-20.0 45.0)
           (-30.0 30.0)
           (-30.0 30.0)
  end
  begin
     id 15 
     name upperneck
     direction 0.0498479 0.98191 -0.182667   
     length 1.68731   
     axis 0 0 0   XYZ
    dof rx ry rz
    limits (-20.0 45.0)
           (-30.0 30.0)
           (-30.0 30.0)
  end
  begin
     id 16
     name head
     direction 0.0230358 0.996257 -0.0833175  
     length 1.69785  
     axis 0 0 0   XYZ
    dof rx ry rz
    limits (-20.0 45.0)
           (-30.0 30.0)
           (-30.0 30.0)
  end
  begin
     id 17 
     name lclavicle
     direction 0.967963 0.201165 -0.150269  
     length 3.63976  
     axis 0 0 0   XYZ
    dof ry rz
    limits (-20.0 10.0)
           (0.0 20.0)
  end
  begin
     id 18 
     name lhumerus
     direction 1 -4.48954e-011 -2.92837e-028   
     length 5.32462   
     axis 180 -30 -90   XYZ
    dof rx ry rz
    limits (-60.0 90.0)
           (-90.0 90.0)
           (-90.0 90.0)
  end
  begin
     id 19
     name lradius
     direction 1 -4.48958e-011 -6.39511e-027   
     length 3.48402   
     axis 180 -30 -90   XYZ
    dof rx
    limits (-10.0 170.0)
  end
  begin
     id 20
     name lwrist
     direction 1 -4.48975e-011 -1.1413e-026   
     length 1.74201   
     axis 6.88575e-015 90 90   XYZ
    dof ry
    limits (-180.0 0.0)
 end
  begin
     id 21 
     name lhand
     direction 1 -4.48899e-011 -2.28192e-026   
     length 0.572476   
     axis 1.45643e-014 90 90   XYZ
    dof rx rz
    limits (-90.0 90.0)
           (-45.0 45.0)
  end
  begin
     id 22 
     name lfingers
     direction 1 -4.49155e-011 -4.5684e-026   
     length 0.461545   
     axis 2.91283e-014 90 90   XYZ
    dof rx
    limits (0.0 90.0)
  end
  begin
     id 23
     name lthumb
     direction 0.707107 -6.34943e-011 0.707107   
     length 0.662688   
     axis -90 45 -2.25915e-014   XYZ
    dof rx rz
    limits (-45.0 45.0)
           (-45.0 45.0)
  end
  begin
     id 24 
     name rclavicle
     direction -0.964103 0.264019 -0.0282629   
     length 3.54491  
     axis 0 0 0   XYZ 
    dof ry rz
    limits (-10.0 20.0)
           (-20.0 0.0)
  end
  begin
     id 25 
     name rhumerus
     direction -1 -4.48964e-011 -2.45032e-027  
     length 5.33589   
     axis 180 30 90   XYZ
    dof rx ry rz
    limits (-90.0 60.0)
           (-90.0 90.0)
           (-90.0 90.0)
  end
  begin
     id 26 
     name rradius
     direction -1 -4.48987e-011 -1.55093e-027   
     length 3.64134   
     axis 180 30 90   XYZ
    dof rx
    limits (-10.0 170.0)
  end
  begin
     id 27 
     name rwrist
     direction -1 -4.4897e-011 -1.14128e-026   
     length 1.82067   
     axis 6.88575e-015 -90 -90   XYZ
    dof ry
    limits (-180.0 0.0)
  end
  begin
     id 28
     name rhand
     direction -1 -4.49021e-011 -2.28301e-026   
     length 0.734811   
     axis 1.45643e-014 -90 -90   XYZ
    dof rx rz
    limits (-90.0 90.0)
           (-45.0 45.0)
  end
  begin
     id 29
     name rfingers
     direction -1 -4.48862e-011 -4.56319e-026   
     length 0.592424   
     axis 2.91283e-014 -90 -90   XYZ
    dof rx
    limits (0.0 90.0)
  end
  begin
     id 30
     name rthumb
     direction -0.707107 -6.34978e-011 0.707107   
     length 0.850605   
     axis -90 -45 2.25915e-014   XYZ
    dof rx rz
    limits (-45.0 45.0)
           (-45.0 45.0)
  end
:hierarchy
  begin
    root lhipjoint rhipjoint lowerback
    lhipjoint lfemur
    lfemur ltibia
    ltibia lfoot
    lfoot ltoes
    rhipjoint rfemur
    rfemur rtibia
    rtibia rfoot
    rfoot rtoes
    lowerback upperback
    upperback thorax
    thorax lowerneck lclavicle rclavicle
    lowerneck upperneck
    upperneck head
    lclavicle lhumerus
    lhumerus lradius
    lradius lwrist
    lwrist lhand lthumb
    lhand lfingers
    rclavicle rhumerus
    rhumerus rradius
    rradius rwrist
    rwrist rhand rthumb
    rhand rfingers
  end

#!OML:ASF F:\VICON\USERDATA\INSTALL\rory3\rory3.ASF
:FULLY-SPECIFIED
:DEGREES
146
root -1.77143 17.2266 -0.180489 -5.31488 2.78344 0.560842
lowerback 9.6236 -0.834605 -2.24997
upperback 0.351488 -1.21789 2.69917
thorax -4.92934 -0.519887 4.26163
lowerneck -19.702 -1.39191 -11.3537
upperneck 27.2795 0.503328 4.47188
head 12.2725 -0.367858 3.70925
rclavicle 2.54693e-016 -1.19271e-014
rhumerus 21.5356 -34.4911 -16.0981
rradius 78.2723
rwrist 9.09951
rhand -39.7548 4.97061
rfingers 7.12502
rthumb -12.7314 -24.6213
lclavicle 2.54693e-016 -1.19271e-014
lhumerus 10.5618 33.5388 15.8946
lradius 78.4346
lwrist 3.99599
lhand -22.5598 24.8158
lfingers 7.12502
lthumb 3.86819 54.7604
rfemur -6.66061 7.15212 2.65201
rtibia 41.7974
rfoot -10.5192 -1.47285
rtoes -12.4622
lfemur -1.00778 -10.6115 -3.58628
ltibia 35.8542
lfoot -7.46585 -8.42711
ltoes -38.199
147
root -1.7722 17.4258 -0.169248 -4.98236 2.7609 0.446277
lowerback 9.19824 -0.846047 -2.17062
upperback 0.260331 -1.21772 2.73747
thorax -4.78693 -0.523004 4.24634
lowerneck -19.6404 -1.3859 -11.2941
upperneck 27.4229 0.46082 4.54637
head 12.3195 -0.375901 3.72541
rclavicle 9.79946e-015 -7.95139e-016
rhumerus 18.87 -34.0406 -16.553
rradius 76.911
rwrist 7.94403
rhand -38.6933 4.04425
rfingers 7.12502
rthumb -11.7079 -25.6086
lclavicle 9.79946e-015 -7.95139e-016
lhumerus 8.21988 33.2309 16.9396
lradius 76.842
lwrist 4.84304
lhand -21.2291 25.8986
lfingers 7.12502
lthumb 5.15316 55.816
rfemur -6.54733 7.68396 2.98575
rtibia 40.2692
rfoot -8.24081 -3.32443
rtoes -10.9348
lfemur -0.930049 -10.9663 -3.70652
ltibia 34.4297
lfoot -4.29167 -8.26485
ltoes -37.1176
148
root -1.77431 17.6233 -0.157077 -4.54607 2.84216 0.566095
lowerback 8.72195 -0.901826 -2.34638
upperback 0.105225 -1.3053 2.71323
thorax -4.67071 -0.563054 4.321
lowerneck -19.4974 -1.36095 -11.2316
upperneck 27.525 0.447909 4.57327
head 12.3314 -0.375681 3.72497
rclavicle 1.06536e-014 7.15625e-015
rhumerus 16.2347 -33.5982 -17.0637
rradius 75.4746
rwrist 6.82693
rhand -37.3521 3.43299
rfingers 7.12502
rthumb -10.4143 -26.2891
lclavicle 1.06536e-014 7.15625e-015
lhumerus 5.59396 32.8912 17.7003
lradius 75.3467
lwrist 5.76897
lhand -20.097 26.7007
lfingers 7.12502
lthumb 6.24616 56.5886
rfemur -6.51964 8.08784 3.05308
rtibia 38.7779
rfoot -6.0639 -5.45039
rtoes -9.53589
lfemur -0.973342 -11.3183 -4.0989
ltibia 32.9786
lfoot -1.20527 -7.90602
ltoes -37.4032
149
root -1.7769 17.8129 -0.14337 -4.10578 2.97456 0.856827
lowerback 8.20413 -0.965066 -2.69599
upperback 0.0251528 -1.41951 2.6511
thorax -4.44623 -0.616593 4.45374
lowerneck -19.6093 -1.36982 -11.1937
upperneck 27.696 0.429916 4.59702
head 12.4238 -0.382261 3.7319
rclavicle -1.83161e-014 6.36111e-015
rhumerus 13.7156 -33.3379 -17.6453
rradius 73.8419
rwrist 6.04797
rhand -36.229 2.65667
rfingers 7.12502
rthumb -9.33072 -27.1168
lclavicle -1.83161e-014 6.36111e-015
lhumerus 3.0445 32.7813 18.5949
lradius 73.8812
lwrist 6.35105
lhand -19.1724 27.52
lfingers 7.12502
lthumb 7.13876 57.3796
rfemur -6.47143 8.39755 2.92627
rtibia 37.3523
rfoot -4.28954 -7.79878
rtoes -5.82806
lfemur -1.05791 -11.6993 -4.71214
ltibia 31.5256
lfoot 2.11409 -7.36765
ltoes -37.3148
150
root -1.78076 17.9964 -0.131337 -3.69058 3.11172 1.05588
lowerback 7.69688 -1.02422 -2.8984
upperback 0.00680247 -1.51204 2.57017
thorax -4.16834 -0.665492 4.47824
lowerneck -19.7871 -1.3904 -11.2067
upperneck 27.7477 0.367157 4.79239
head 12.4839 -0.386364 3.80413
rclavicle 9.18913e-015 -1.82882e-014
rhumerus 11.2249 -33.2883 -18.2996
rradius 72.0791
rwrist 5.48603
rhand -35.4802 1.43736
rfingers 7.12502
rthumb -8.60817 -28.3671
lclavicle 9.18913e-015 -1.82882e-014
lhumerus 0.668678 32.8749 19.6018
lradius 72.3753
lwrist 6.74618
lhand -18.6782 28.2541
lfingers 7.12502
lthumb 7.61572 58.097
rfemur -6.43464 8.68876 2.94589
rtibia 36.0012
rfoot -3.11263 -10.4858
rtoes -0.572484
lfemur -1.19601 -12.0287 -5.21898
ltibia 30.1116
lfoot 5.57242 -6.69211
ltoes -36.1978
151
root -1.78751 18.1761 -0.122253 -3.24852 3.24562 1.02988
lowerback 7.26758 -1.10506 -2.90605
upperback -0.055789 -1.61404 2.52817
thorax -3.98317 -0.719943 4.43655
lowerneck -19.9942 -1.37088 -11.0097
upperneck 27.7514 0.33639 4.84714
head 12.5283 -0.370873 3.78994
rclavicle 1.25677e-014 -1.59028e-015
rhumerus 8.75538 -33.2662 -19.0137
rradius 70.2158
rwrist 4.73259
rhand -34.6278 0.566805
rfingers 7.12502
rthumb -7.78554 -29.2699
lclavicle 1.25677e-014 -1.59028e-015
lhumerus -1.69927 33.0502 20.5407
lradius 70.8322
lwrist 7.1118
lhand -18.2731 28.9756
lfingers 7.12502
lthumb 8.0068 58.8039
rfemur -6.51157 8.96666 3.2754
rtibia 34.7662
rfoot -2.31648 -13.34
rtoes 3.83976
lfemur -1.45325 -12.2739 -5.45631
ltibia 28.7885
lfoot 8.80133 -6.03157
ltoes -34.8516
152
root -1.79483 18.3445 -0.113601 -2.79182 3.38031 0.94174
lowerback 6.8761 -1.18399 -2.90499
upperback -0.145814 -1.71183 2.52167
thorax -3.84744 -0.77053 4.42772
lowerneck -20.2669 -1.37386 -10.8564
upperneck 27.8271 0.28079 4.94913
head 12.6174 -0.366689 3.80095
rclavicle 7.11276e-015 -1.51076e-014
rhumerus 6.29123 -33.1702 -19.6492
rradius 68.2035
rwrist 3.69003
rhand -33.7897 0.10782
rfingers 7.12502
rthumb -6.97653 -29.7572
lclavicle 7.11276e-015 -1.51076e-014
lhumerus -4.01763 33.2131 21.4781
lradius 69.2685
lwrist 7.5705
lhand -18.871 29.8586
lfingers 7.12502
lthumb 7.42963 59.7081
rfemur -6.68653 9.11675 3.70113
rtibia 33.7078
rfoot -1.55726 -15.7848
rtoes 5.424
lfemur -1.80388 -12.3773 -5.62229
ltibia 27.637
lfoot 11.5286 -5.44397
ltoes -33.0557
